<svg xmlns="http://www.w3.org/2000/svg" xmlns:xlink="http://www.w3.org/1999/xlink" width="240" zoomAndPan="magnify" viewBox="0 0 180 44.999999" height="60" preserveAspectRatio="xMidYMid meet" version="1.0"><defs><g/><clipPath id="id1"><path d="M 0.75 2.566406 L 40.191406 2.566406 L 40.191406 42.007812 L 0.75 42.007812 Z M 0.75 2.566406 " clip-rule="nonzero"/></clipPath><clipPath id="id2"><path d="M 11.863281 8.125 L 40.347656 8.125 L 40.347656 36.609375 L 11.863281 36.609375 Z M 11.863281 8.125 " clip-rule="nonzero"/></clipPath></defs><g clip-path="url(#id1)"><path fill="#5ba0d2" d="M 20.46875 2.566406 C 9.578125 2.566406 0.75 11.394531 0.75 22.285156 C 0.75 33.179688 9.578125 42.007812 20.46875 42.007812 C 31.359375 42.007812 40.191406 33.179688 40.191406 22.285156 C 40.191406 11.394531 31.359375 2.566406 20.46875 2.566406 " fill-opacity="1" fill-rule="nonzero"/></g><g clip-path="url(#id2)"><path fill="#ffffff" d="M 26.105469 8.125 C 18.242188 8.125 11.863281 14.5 11.863281 22.367188 C 11.863281 30.230469 18.242188 36.609375 26.105469 36.609375 C 33.972656 36.609375 40.347656 30.230469 40.347656 22.367188 C 40.347656 14.5 33.972656 8.125 26.105469 8.125 " fill-opacity="1" fill-rule="nonzero"/></g><g fill="#12334b" fill-opacity="1"><g transform="translate(47.36967, 21.295327)"><g><path d="M 9.078125 -3.453125 C 8.992188 -2.335938 8.582031 -1.457031 7.84375 -0.8125 C 7.101562 -0.175781 6.125 0.140625 4.90625 0.140625 C 3.570312 0.140625 2.519531 -0.304688 1.75 -1.203125 C 0.988281 -2.097656 0.609375 -3.328125 0.609375 -4.890625 L 0.609375 -5.53125 C 0.609375 -6.53125 0.785156 -7.410156 1.140625 -8.171875 C 1.492188 -8.929688 1.992188 -9.515625 2.640625 -9.921875 C 3.296875 -10.328125 4.054688 -10.53125 4.921875 -10.53125 C 6.128906 -10.53125 7.097656 -10.207031 7.828125 -9.5625 C 8.554688 -8.925781 8.976562 -8.023438 9.09375 -6.859375 L 6.953125 -6.859375 C 6.898438 -7.535156 6.710938 -8.023438 6.390625 -8.328125 C 6.066406 -8.628906 5.578125 -8.78125 4.921875 -8.78125 C 4.210938 -8.78125 3.679688 -8.519531 3.328125 -8 C 2.972656 -7.488281 2.789062 -6.695312 2.78125 -5.625 L 2.78125 -4.84375 C 2.78125 -3.71875 2.945312 -2.894531 3.28125 -2.375 C 3.625 -1.863281 4.164062 -1.609375 4.90625 -1.609375 C 5.5625 -1.609375 6.050781 -1.757812 6.375 -2.0625 C 6.707031 -2.363281 6.894531 -2.828125 6.9375 -3.453125 Z M 9.078125 -3.453125 "/></g></g></g><g fill="#12334b" fill-opacity="1"><g transform="translate(56.923451, 21.295327)"><g><path d="M 3.71875 -10.390625 L 6.390625 -2.859375 L 9.046875 -10.390625 L 11.859375 -10.390625 L 11.859375 0 L 9.703125 0 L 9.703125 -2.84375 L 9.921875 -7.734375 L 7.125 0 L 5.65625 0 L 2.859375 -7.734375 L 3.0625 -2.84375 L 3.0625 0 L 0.921875 0 L 0.921875 -10.390625 Z M 3.71875 -10.390625 "/></g></g></g><g fill="#12334b" fill-opacity="1"><g transform="translate(69.714109, 21.295327)"><g><path d="M 6.3125 -2.71875 C 6.3125 -3.125 6.164062 -3.4375 5.875 -3.65625 C 5.59375 -3.875 5.082031 -4.101562 4.34375 -4.34375 C 3.601562 -4.582031 3.015625 -4.816406 2.578125 -5.046875 C 1.398438 -5.679688 0.8125 -6.539062 0.8125 -7.625 C 0.8125 -8.1875 0.96875 -8.6875 1.28125 -9.125 C 1.601562 -9.5625 2.054688 -9.90625 2.640625 -10.15625 C 3.234375 -10.40625 3.898438 -10.53125 4.640625 -10.53125 C 5.378906 -10.53125 6.039062 -10.394531 6.625 -10.125 C 7.207031 -9.851562 7.65625 -9.472656 7.96875 -8.984375 C 8.289062 -8.492188 8.453125 -7.9375 8.453125 -7.3125 L 6.3125 -7.3125 C 6.3125 -7.789062 6.160156 -8.160156 5.859375 -8.421875 C 5.566406 -8.691406 5.148438 -8.828125 4.609375 -8.828125 C 4.085938 -8.828125 3.679688 -8.710938 3.390625 -8.484375 C 3.097656 -8.265625 2.953125 -7.976562 2.953125 -7.625 C 2.953125 -7.28125 3.117188 -6.992188 3.453125 -6.765625 C 3.796875 -6.535156 4.300781 -6.320312 4.96875 -6.125 C 6.1875 -5.757812 7.070312 -5.304688 7.625 -4.765625 C 8.175781 -4.222656 8.453125 -3.546875 8.453125 -2.734375 C 8.453125 -1.835938 8.113281 -1.132812 7.4375 -0.625 C 6.757812 -0.113281 5.84375 0.140625 4.6875 0.140625 C 3.894531 0.140625 3.171875 -0.00390625 2.515625 -0.296875 C 1.859375 -0.585938 1.359375 -0.988281 1.015625 -1.5 C 0.671875 -2.007812 0.5 -2.597656 0.5 -3.265625 L 2.640625 -3.265625 C 2.640625 -2.117188 3.320312 -1.546875 4.6875 -1.546875 C 5.195312 -1.546875 5.59375 -1.648438 5.875 -1.859375 C 6.164062 -2.066406 6.3125 -2.351562 6.3125 -2.71875 Z M 6.3125 -2.71875 "/></g></g></g><g fill="#12334b" fill-opacity="1"><g transform="translate(78.690394, 21.295327)"><g/></g></g><g fill="#12334b" fill-opacity="1"><g transform="translate(82.326534, 21.295327)"><g><path d="M 9.015625 -3 L 10.421875 -10.390625 L 12.546875 -10.390625 L 10.25 0 L 8.09375 0 L 6.40625 -6.953125 L 4.703125 0 L 2.546875 0 L 0.25 -10.390625 L 2.375 -10.390625 L 3.78125 -3.015625 L 5.5 -10.390625 L 7.3125 -10.390625 Z M 9.015625 -3 "/></g></g></g><g fill="#12334b" fill-opacity="1"><g transform="translate(95.095812, 21.295327)"><g><path d="M 7.171875 -4.5 L 3.0625 -4.5 L 3.0625 -1.71875 L 7.890625 -1.71875 L 7.890625 0 L 0.921875 0 L 0.921875 -10.390625 L 7.875 -10.390625 L 7.875 -8.65625 L 3.0625 -8.65625 L 3.0625 -6.171875 L 7.171875 -6.171875 Z M 7.171875 -4.5 "/></g></g></g><g fill="#12334b" fill-opacity="1"><g transform="translate(103.309211, 21.295327)"><g><path d="M 0.921875 0 L 0.921875 -10.390625 L 4.5625 -10.390625 C 5.820312 -10.390625 6.773438 -10.144531 7.421875 -9.65625 C 8.078125 -9.175781 8.40625 -8.472656 8.40625 -7.546875 C 8.40625 -7.035156 8.273438 -6.582031 8.015625 -6.1875 C 7.753906 -5.800781 7.390625 -5.519531 6.921875 -5.34375 C 7.453125 -5.207031 7.867188 -4.9375 8.171875 -4.53125 C 8.484375 -4.132812 8.640625 -3.640625 8.640625 -3.046875 C 8.640625 -2.054688 8.320312 -1.300781 7.6875 -0.78125 C 7.050781 -0.269531 6.144531 -0.0078125 4.96875 0 Z M 3.0625 -4.515625 L 3.0625 -1.71875 L 4.90625 -1.71875 C 5.40625 -1.71875 5.796875 -1.835938 6.078125 -2.078125 C 6.359375 -2.316406 6.5 -2.648438 6.5 -3.078125 C 6.5 -4.023438 6.007812 -4.503906 5.03125 -4.515625 Z M 3.0625 -6.03125 L 4.65625 -6.03125 C 5.726562 -6.050781 6.265625 -6.484375 6.265625 -7.328125 C 6.265625 -7.796875 6.128906 -8.132812 5.859375 -8.34375 C 5.585938 -8.550781 5.15625 -8.65625 4.5625 -8.65625 L 3.0625 -8.65625 Z M 3.0625 -6.03125 "/></g></g></g><g fill="#12334b" fill-opacity="1"><g transform="translate(112.62772, 21.295327)"><g><path d="M 6.3125 -2.71875 C 6.3125 -3.125 6.164062 -3.4375 5.875 -3.65625 C 5.59375 -3.875 5.082031 -4.101562 4.34375 -4.34375 C 3.601562 -4.582031 3.015625 -4.816406 2.578125 -5.046875 C 1.398438 -5.679688 0.8125 -6.539062 0.8125 -7.625 C 0.8125 -8.1875 0.96875 -8.6875 1.28125 -9.125 C 1.601562 -9.5625 2.054688 -9.90625 2.640625 -10.15625 C 3.234375 -10.40625 3.898438 -10.53125 4.640625 -10.53125 C 5.378906 -10.53125 6.039062 -10.394531 6.625 -10.125 C 7.207031 -9.851562 7.65625 -9.472656 7.96875 -8.984375 C 8.289062 -8.492188 8.453125 -7.9375 8.453125 -7.3125 L 6.3125 -7.3125 C 6.3125 -7.789062 6.160156 -8.160156 5.859375 -8.421875 C 5.566406 -8.691406 5.148438 -8.828125 4.609375 -8.828125 C 4.085938 -8.828125 3.679688 -8.710938 3.390625 -8.484375 C 3.097656 -8.265625 2.953125 -7.976562 2.953125 -7.625 C 2.953125 -7.28125 3.117188 -6.992188 3.453125 -6.765625 C 3.796875 -6.535156 4.300781 -6.320312 4.96875 -6.125 C 6.1875 -5.757812 7.070312 -5.304688 7.625 -4.765625 C 8.175781 -4.222656 8.453125 -3.546875 8.453125 -2.734375 C 8.453125 -1.835938 8.113281 -1.132812 7.4375 -0.625 C 6.757812 -0.113281 5.84375 0.140625 4.6875 0.140625 C 3.894531 0.140625 3.171875 -0.00390625 2.515625 -0.296875 C 1.859375 -0.585938 1.359375 -0.988281 1.015625 -1.5 C 0.671875 -2.007812 0.5 -2.597656 0.5 -3.265625 L 2.640625 -3.265625 C 2.640625 -2.117188 3.320312 -1.546875 4.6875 -1.546875 C 5.195312 -1.546875 5.59375 -1.648438 5.875 -1.859375 C 6.164062 -2.066406 6.3125 -2.351562 6.3125 -2.71875 Z M 6.3125 -2.71875 "/></g></g></g><g fill="#12334b" fill-opacity="1"><g transform="translate(121.604005, 21.295327)"><g><path d="M 7.171875 -4.5 L 3.0625 -4.5 L 3.0625 -1.71875 L 7.890625 -1.71875 L 7.890625 0 L 0.921875 0 L 0.921875 -10.390625 L 7.875 -10.390625 L 7.875 -8.65625 L 3.0625 -8.65625 L 3.0625 -6.171875 L 7.171875 -6.171875 Z M 7.171875 -4.5 "/></g></g></g><g fill="#12334b" fill-opacity="1"><g transform="translate(129.817404, 21.295327)"><g><path d="M 4.765625 -3.796875 L 3.0625 -3.796875 L 3.0625 0 L 0.921875 0 L 0.921875 -10.390625 L 4.78125 -10.390625 C 6.007812 -10.390625 6.957031 -10.113281 7.625 -9.5625 C 8.289062 -9.019531 8.625 -8.25 8.625 -7.25 C 8.625 -6.539062 8.46875 -5.945312 8.15625 -5.46875 C 7.851562 -5 7.390625 -4.625 6.765625 -4.34375 L 9.015625 -0.09375 L 9.015625 0 L 6.71875 0 Z M 3.0625 -5.53125 L 4.796875 -5.53125 C 5.328125 -5.53125 5.738281 -5.664062 6.03125 -5.9375 C 6.332031 -6.21875 6.484375 -6.597656 6.484375 -7.078125 C 6.484375 -7.566406 6.34375 -7.953125 6.0625 -8.234375 C 5.789062 -8.515625 5.363281 -8.65625 4.78125 -8.65625 L 3.0625 -8.65625 Z M 3.0625 -5.53125 "/></g></g></g><g fill="#12334b" fill-opacity="1"><g transform="translate(139.135913, 21.295327)"><g><path d="M 4.765625 -2.578125 L 7.125 -10.390625 L 9.5 -10.390625 L 5.890625 0 L 3.65625 0 L 0.046875 -10.390625 L 2.421875 -10.390625 Z M 4.765625 -2.578125 "/></g></g></g><g fill="#12334b" fill-opacity="1"><g transform="translate(148.682573, 21.295327)"><g><path d="M 3.203125 0 L 1.0625 0 L 1.0625 -10.390625 L 3.203125 -10.390625 Z M 3.203125 0 "/></g></g></g><g fill="#12334b" fill-opacity="1"><g transform="translate(152.939004, 21.295327)"><g><path d="M 9.078125 -3.453125 C 8.992188 -2.335938 8.582031 -1.457031 7.84375 -0.8125 C 7.101562 -0.175781 6.125 0.140625 4.90625 0.140625 C 3.570312 0.140625 2.519531 -0.304688 1.75 -1.203125 C 0.988281 -2.097656 0.609375 -3.328125 0.609375 -4.890625 L 0.609375 -5.53125 C 0.609375 -6.53125 0.785156 -7.410156 1.140625 -8.171875 C 1.492188 -8.929688 1.992188 -9.515625 2.640625 -9.921875 C 3.296875 -10.328125 4.054688 -10.53125 4.921875 -10.53125 C 6.128906 -10.53125 7.097656 -10.207031 7.828125 -9.5625 C 8.554688 -8.925781 8.976562 -8.023438 9.09375 -6.859375 L 6.953125 -6.859375 C 6.898438 -7.535156 6.710938 -8.023438 6.390625 -8.328125 C 6.066406 -8.628906 5.578125 -8.78125 4.921875 -8.78125 C 4.210938 -8.78125 3.679688 -8.519531 3.328125 -8 C 2.972656 -7.488281 2.789062 -6.695312 2.78125 -5.625 L 2.78125 -4.84375 C 2.78125 -3.71875 2.945312 -2.894531 3.28125 -2.375 C 3.625 -1.863281 4.164062 -1.609375 4.90625 -1.609375 C 5.5625 -1.609375 6.050781 -1.757812 6.375 -2.0625 C 6.707031 -2.363281 6.894531 -2.828125 6.9375 -3.453125 Z M 9.078125 -3.453125 "/></g></g></g><g fill="#12334b" fill-opacity="1"><g transform="translate(162.492785, 21.295327)"><g><path d="M 7.171875 -4.5 L 3.0625 -4.5 L 3.0625 -1.71875 L 7.890625 -1.71875 L 7.890625 0 L 0.921875 0 L 0.921875 -10.390625 L 7.875 -10.390625 L 7.875 -8.65625 L 3.0625 -8.65625 L 3.0625 -6.171875 L 7.171875 -6.171875 Z M 7.171875 -4.5 "/></g></g></g><g fill="#12334b" fill-opacity="1"><g transform="translate(170.706184, 21.295327)"><g><path d="M 6.3125 -2.71875 C 6.3125 -3.125 6.164062 -3.4375 5.875 -3.65625 C 5.59375 -3.875 5.082031 -4.101562 4.34375 -4.34375 C 3.601562 -4.582031 3.015625 -4.816406 2.578125 -5.046875 C 1.398438 -5.679688 0.8125 -6.539062 0.8125 -7.625 C 0.8125 -8.1875 0.96875 -8.6875 1.28125 -9.125 C 1.601562 -9.5625 2.054688 -9.90625 2.640625 -10.15625 C 3.234375 -10.40625 3.898438 -10.53125 4.640625 -10.53125 C 5.378906 -10.53125 6.039062 -10.394531 6.625 -10.125 C 7.207031 -9.851562 7.65625 -9.472656 7.96875 -8.984375 C 8.289062 -8.492188 8.453125 -7.9375 8.453125 -7.3125 L 6.3125 -7.3125 C 6.3125 -7.789062 6.160156 -8.160156 5.859375 -8.421875 C 5.566406 -8.691406 5.148438 -8.828125 4.609375 -8.828125 C 4.085938 -8.828125 3.679688 -8.710938 3.390625 -8.484375 C 3.097656 -8.265625 2.953125 -7.976562 2.953125 -7.625 C 2.953125 -7.28125 3.117188 -6.992188 3.453125 -6.765625 C 3.796875 -6.535156 4.300781 -6.320312 4.96875 -6.125 C 6.1875 -5.757812 7.070312 -5.304688 7.625 -4.765625 C 8.175781 -4.222656 8.453125 -3.546875 8.453125 -2.734375 C 8.453125 -1.835938 8.113281 -1.132812 7.4375 -0.625 C 6.757812 -0.113281 5.84375 0.140625 4.6875 0.140625 C 3.894531 0.140625 3.171875 -0.00390625 2.515625 -0.296875 C 1.859375 -0.585938 1.359375 -0.988281 1.015625 -1.5 C 0.671875 -2.007812 0.5 -2.597656 0.5 -3.265625 L 2.640625 -3.265625 C 2.640625 -2.117188 3.320312 -1.546875 4.6875 -1.546875 C 5.195312 -1.546875 5.59375 -1.648438 5.875 -1.859375 C 6.164062 -2.066406 6.3125 -2.351562 6.3125 -2.71875 Z M 6.3125 -2.71875 "/></g></g></g><g fill="#4388bb" fill-opacity="1"><g transform="translate(47.253496, 33.017262)"><g/></g></g><g fill="#4388bb" fill-opacity="1"><g transform="translate(50.144526, 33.017262)"><g><path d="M 2.140625 0 L 1.046875 0 L 1.046875 -8.3125 L 2.140625 -8.3125 Z M 2.140625 0 "/></g></g><g transform="translate(53.322757, 33.017262)"><g><path d="M 6.703125 -7.40625 L 4.03125 -7.40625 L 4.03125 0 L 2.9375 0 L 2.9375 -7.40625 L 0.28125 -7.40625 L 0.28125 -8.3125 L 6.703125 -8.3125 Z M 6.703125 -7.40625 "/></g></g><g transform="translate(60.295465, 33.017262)"><g/></g><g transform="translate(63.188397, 33.017262)"><g><path d="M 3.40625 -3.703125 C 2.46875 -3.972656 1.785156 -4.304688 1.359375 -4.703125 C 0.929688 -5.097656 0.71875 -5.582031 0.71875 -6.15625 C 0.71875 -6.8125 0.976562 -7.351562 1.5 -7.78125 C 2.019531 -8.207031 2.703125 -8.421875 3.546875 -8.421875 C 4.117188 -8.421875 4.625 -8.3125 5.0625 -8.09375 C 5.507812 -7.875 5.859375 -7.566406 6.109375 -7.171875 C 6.359375 -6.785156 6.484375 -6.363281 6.484375 -5.90625 L 5.375 -5.90625 C 5.375 -6.40625 5.210938 -6.796875 4.890625 -7.078125 C 4.578125 -7.367188 4.128906 -7.515625 3.546875 -7.515625 C 3.003906 -7.515625 2.582031 -7.394531 2.28125 -7.15625 C 1.976562 -6.925781 1.828125 -6.597656 1.828125 -6.171875 C 1.828125 -5.835938 1.96875 -5.550781 2.25 -5.3125 C 2.539062 -5.082031 3.03125 -4.867188 3.71875 -4.671875 C 4.414062 -4.484375 4.957031 -4.269531 5.34375 -4.03125 C 5.726562 -3.800781 6.015625 -3.53125 6.203125 -3.21875 C 6.398438 -2.90625 6.5 -2.535156 6.5 -2.109375 C 6.5 -1.429688 6.234375 -0.890625 5.703125 -0.484375 C 5.179688 -0.0859375 4.476562 0.109375 3.59375 0.109375 C 3.03125 0.109375 2.5 0 2 -0.21875 C 1.507812 -0.4375 1.128906 -0.734375 0.859375 -1.109375 C 0.585938 -1.492188 0.453125 -1.925781 0.453125 -2.40625 L 1.5625 -2.40625 C 1.5625 -1.90625 1.742188 -1.507812 2.109375 -1.21875 C 2.484375 -0.925781 2.976562 -0.78125 3.59375 -0.78125 C 4.175781 -0.78125 4.617188 -0.894531 4.921875 -1.125 C 5.234375 -1.363281 5.390625 -1.6875 5.390625 -2.09375 C 5.390625 -2.5 5.242188 -2.8125 4.953125 -3.03125 C 4.671875 -3.257812 4.15625 -3.484375 3.40625 -3.703125 Z M 3.40625 -3.703125 "/></g></g><g transform="translate(70.121163, 33.017262)"><g><path d="M 3.359375 0.109375 C 2.523438 0.109375 1.84375 -0.160156 1.3125 -0.703125 C 0.789062 -1.253906 0.53125 -1.992188 0.53125 -2.921875 L 0.53125 -3.109375 C 0.53125 -3.722656 0.644531 -4.269531 0.875 -4.75 C 1.113281 -5.226562 1.441406 -5.601562 1.859375 -5.875 C 2.285156 -6.144531 2.742188 -6.28125 3.234375 -6.28125 C 4.035156 -6.28125 4.65625 -6.015625 5.09375 -5.484375 C 5.539062 -4.960938 5.765625 -4.207031 5.765625 -3.21875 L 5.765625 -2.78125 L 1.59375 -2.78125 C 1.601562 -2.175781 1.773438 -1.6875 2.109375 -1.3125 C 2.453125 -0.9375 2.890625 -0.75 3.421875 -0.75 C 3.796875 -0.75 4.109375 -0.820312 4.359375 -0.96875 C 4.617188 -1.125 4.847656 -1.328125 5.046875 -1.578125 L 5.6875 -1.078125 C 5.164062 -0.285156 4.390625 0.109375 3.359375 0.109375 Z M 3.234375 -5.421875 C 2.804688 -5.421875 2.445312 -5.265625 2.15625 -4.953125 C 1.863281 -4.640625 1.6875 -4.207031 1.625 -3.65625 L 4.71875 -3.65625 L 4.71875 -3.734375 C 4.6875 -4.265625 4.539062 -4.675781 4.28125 -4.96875 C 4.019531 -5.269531 3.671875 -5.421875 3.234375 -5.421875 Z M 3.234375 -5.421875 "/></g></g><g transform="translate(76.312151, 33.017262)"><g><path d="M 3.78125 -5.234375 C 3.625 -5.253906 3.453125 -5.265625 3.265625 -5.265625 C 2.566406 -5.265625 2.097656 -4.972656 1.859375 -4.390625 L 1.859375 0 L 0.796875 0 L 0.796875 -6.171875 L 1.828125 -6.171875 L 1.84375 -5.46875 C 2.1875 -6.007812 2.675781 -6.28125 3.3125 -6.28125 C 3.519531 -6.28125 3.675781 -6.253906 3.78125 -6.203125 Z M 3.78125 -5.234375 "/></g></g><g transform="translate(80.266396, 33.017262)"><g><path d="M 2.84375 -1.4375 L 4.359375 -6.171875 L 5.4375 -6.171875 L 3.234375 0 L 2.421875 0 L 0.1875 -6.171875 L 1.265625 -6.171875 Z M 2.84375 -1.4375 "/></g></g><g transform="translate(85.926728, 33.017262)"><g><path d="M 1.953125 0 L 0.890625 0 L 0.890625 -6.171875 L 1.953125 -6.171875 Z M 0.796875 -7.8125 C 0.796875 -7.976562 0.847656 -8.117188 0.953125 -8.234375 C 1.066406 -8.359375 1.222656 -8.421875 1.421875 -8.421875 C 1.628906 -8.421875 1.785156 -8.359375 1.890625 -8.234375 C 1.992188 -8.117188 2.046875 -7.976562 2.046875 -7.8125 C 2.046875 -7.644531 1.992188 -7.503906 1.890625 -7.390625 C 1.785156 -7.273438 1.628906 -7.21875 1.421875 -7.21875 C 1.222656 -7.21875 1.066406 -7.273438 0.953125 -7.390625 C 0.847656 -7.503906 0.796875 -7.644531 0.796875 -7.8125 Z M 0.796875 -7.8125 "/></g></g><g transform="translate(88.7626, 33.017262)"><g><path d="M 3.28125 -0.75 C 3.65625 -0.75 3.984375 -0.863281 4.265625 -1.09375 C 4.546875 -1.320312 4.703125 -1.609375 4.734375 -1.953125 L 5.734375 -1.953125 C 5.710938 -1.597656 5.585938 -1.257812 5.359375 -0.9375 C 5.140625 -0.613281 4.84375 -0.359375 4.46875 -0.171875 C 4.09375 0.015625 3.695312 0.109375 3.28125 0.109375 C 2.4375 0.109375 1.765625 -0.164062 1.265625 -0.71875 C 0.773438 -1.28125 0.53125 -2.050781 0.53125 -3.03125 L 0.53125 -3.203125 C 0.53125 -3.804688 0.640625 -4.34375 0.859375 -4.8125 C 1.078125 -5.28125 1.390625 -5.640625 1.796875 -5.890625 C 2.210938 -6.148438 2.703125 -6.28125 3.265625 -6.28125 C 3.960938 -6.28125 4.539062 -6.070312 5 -5.65625 C 5.457031 -5.25 5.703125 -4.710938 5.734375 -4.046875 L 4.734375 -4.046875 C 4.703125 -4.453125 4.550781 -4.78125 4.28125 -5.03125 C 4.007812 -5.289062 3.671875 -5.421875 3.265625 -5.421875 C 2.734375 -5.421875 2.316406 -5.226562 2.015625 -4.84375 C 1.722656 -4.457031 1.578125 -3.898438 1.578125 -3.171875 L 1.578125 -2.96875 C 1.578125 -2.257812 1.722656 -1.710938 2.015625 -1.328125 C 2.304688 -0.941406 2.726562 -0.75 3.28125 -0.75 Z M 3.28125 -0.75 "/></g></g><g transform="translate(94.879411, 33.017262)"><g><path d="M 3.359375 0.109375 C 2.523438 0.109375 1.84375 -0.160156 1.3125 -0.703125 C 0.789062 -1.253906 0.53125 -1.992188 0.53125 -2.921875 L 0.53125 -3.109375 C 0.53125 -3.722656 0.644531 -4.269531 0.875 -4.75 C 1.113281 -5.226562 1.441406 -5.601562 1.859375 -5.875 C 2.285156 -6.144531 2.742188 -6.28125 3.234375 -6.28125 C 4.035156 -6.28125 4.65625 -6.015625 5.09375 -5.484375 C 5.539062 -4.960938 5.765625 -4.207031 5.765625 -3.21875 L 5.765625 -2.78125 L 1.59375 -2.78125 C 1.601562 -2.175781 1.773438 -1.6875 2.109375 -1.3125 C 2.453125 -0.9375 2.890625 -0.75 3.421875 -0.75 C 3.796875 -0.75 4.109375 -0.820312 4.359375 -0.96875 C 4.617188 -1.125 4.847656 -1.328125 5.046875 -1.578125 L 5.6875 -1.078125 C 5.164062 -0.285156 4.390625 0.109375 3.359375 0.109375 Z M 3.234375 -5.421875 C 2.804688 -5.421875 2.445312 -5.265625 2.15625 -4.953125 C 1.863281 -4.640625 1.6875 -4.207031 1.625 -3.65625 L 4.71875 -3.65625 L 4.71875 -3.734375 C 4.6875 -4.265625 4.539062 -4.675781 4.28125 -4.96875 C 4.019531 -5.269531 3.671875 -5.421875 3.234375 -5.421875 Z M 3.234375 -5.421875 "/></g></g><g transform="translate(101.070399, 33.017262)"><g><path d="M 4.390625 -1.640625 C 4.390625 -1.921875 4.28125 -2.140625 4.0625 -2.296875 C 3.851562 -2.460938 3.476562 -2.597656 2.9375 -2.703125 C 2.40625 -2.816406 1.984375 -2.953125 1.671875 -3.109375 C 1.359375 -3.273438 1.125 -3.46875 0.96875 -3.6875 C 0.820312 -3.90625 0.75 -4.171875 0.75 -4.484375 C 0.75 -4.984375 0.960938 -5.40625 1.390625 -5.75 C 1.816406 -6.101562 2.363281 -6.28125 3.03125 -6.28125 C 3.738281 -6.28125 4.304688 -6.097656 4.734375 -5.734375 C 5.171875 -5.378906 5.390625 -4.921875 5.390625 -4.359375 L 4.328125 -4.359375 C 4.328125 -4.648438 4.203125 -4.898438 3.953125 -5.109375 C 3.710938 -5.316406 3.40625 -5.421875 3.03125 -5.421875 C 2.644531 -5.421875 2.34375 -5.335938 2.125 -5.171875 C 1.914062 -5.003906 1.8125 -4.785156 1.8125 -4.515625 C 1.8125 -4.253906 1.910156 -4.0625 2.109375 -3.9375 C 2.304688 -3.8125 2.671875 -3.6875 3.203125 -3.5625 C 3.734375 -3.445312 4.160156 -3.304688 4.484375 -3.140625 C 4.804688 -2.984375 5.046875 -2.785156 5.203125 -2.546875 C 5.367188 -2.316406 5.453125 -2.039062 5.453125 -1.71875 C 5.453125 -1.164062 5.226562 -0.722656 4.78125 -0.390625 C 4.34375 -0.0546875 3.769531 0.109375 3.0625 0.109375 C 2.570312 0.109375 2.132812 0.0234375 1.75 -0.140625 C 1.375 -0.316406 1.078125 -0.5625 0.859375 -0.875 C 0.648438 -1.195312 0.546875 -1.539062 0.546875 -1.90625 L 1.59375 -1.90625 C 1.613281 -1.550781 1.753906 -1.269531 2.015625 -1.0625 C 2.285156 -0.851562 2.632812 -0.75 3.0625 -0.75 C 3.46875 -0.75 3.789062 -0.828125 4.03125 -0.984375 C 4.269531 -1.148438 4.390625 -1.367188 4.390625 -1.640625 Z M 4.390625 -1.640625 "/></g></g><g transform="translate(107.095915, 33.017262)"><g/></g><g transform="translate(109.988847, 33.017262)"><g><path d="M 2.0625 -3.25 L 2.0625 0 L 0.96875 0 L 0.96875 -8.3125 L 4.03125 -8.3125 C 4.9375 -8.3125 5.644531 -8.078125 6.15625 -7.609375 C 6.675781 -7.148438 6.9375 -6.535156 6.9375 -5.765625 C 6.9375 -4.960938 6.679688 -4.34375 6.171875 -3.90625 C 5.671875 -3.46875 4.953125 -3.25 4.015625 -3.25 Z M 2.0625 -4.15625 L 4.03125 -4.15625 C 4.613281 -4.15625 5.0625 -4.289062 5.375 -4.5625 C 5.6875 -4.832031 5.84375 -5.234375 5.84375 -5.765625 C 5.84375 -6.253906 5.6875 -6.644531 5.375 -6.9375 C 5.0625 -7.238281 4.632812 -7.394531 4.09375 -7.40625 L 2.0625 -7.40625 Z M 2.0625 -4.15625 "/></g></g><g transform="translate(117.360973, 33.017262)"><g><path d="M 3.78125 -5.234375 C 3.625 -5.253906 3.453125 -5.265625 3.265625 -5.265625 C 2.566406 -5.265625 2.097656 -4.972656 1.859375 -4.390625 L 1.859375 0 L 0.796875 0 L 0.796875 -6.171875 L 1.828125 -6.171875 L 1.84375 -5.46875 C 2.1875 -6.007812 2.675781 -6.28125 3.3125 -6.28125 C 3.519531 -6.28125 3.675781 -6.253906 3.78125 -6.203125 Z M 3.78125 -5.234375 "/></g></g><g transform="translate(121.315217, 33.017262)"><g><path d="M 0.515625 -3.140625 C 0.515625 -3.742188 0.632812 -4.285156 0.875 -4.765625 C 1.113281 -5.253906 1.441406 -5.628906 1.859375 -5.890625 C 2.285156 -6.148438 2.773438 -6.28125 3.328125 -6.28125 C 4.160156 -6.28125 4.835938 -5.988281 5.359375 -5.40625 C 5.878906 -4.832031 6.140625 -4.0625 6.140625 -3.09375 L 6.140625 -3.015625 C 6.140625 -2.421875 6.023438 -1.882812 5.796875 -1.40625 C 5.566406 -0.925781 5.238281 -0.550781 4.8125 -0.28125 C 4.382812 -0.0195312 3.890625 0.109375 3.328125 0.109375 C 2.492188 0.109375 1.816406 -0.175781 1.296875 -0.75 C 0.773438 -1.332031 0.515625 -2.101562 0.515625 -3.0625 Z M 1.578125 -3.015625 C 1.578125 -2.328125 1.734375 -1.773438 2.046875 -1.359375 C 2.367188 -0.953125 2.796875 -0.75 3.328125 -0.75 C 3.867188 -0.75 4.296875 -0.957031 4.609375 -1.375 C 4.921875 -1.800781 5.078125 -2.390625 5.078125 -3.140625 C 5.078125 -3.816406 4.914062 -4.363281 4.59375 -4.78125 C 4.28125 -5.207031 3.859375 -5.421875 3.328125 -5.421875 C 2.804688 -5.421875 2.382812 -5.210938 2.0625 -4.796875 C 1.738281 -4.378906 1.578125 -3.785156 1.578125 -3.015625 Z M 1.578125 -3.015625 "/></g></g><g transform="translate(127.979802, 33.017262)"><g><path d="M 2.84375 -1.4375 L 4.359375 -6.171875 L 5.4375 -6.171875 L 3.234375 0 L 2.421875 0 L 0.1875 -6.171875 L 1.265625 -6.171875 Z M 2.84375 -1.4375 "/></g></g><g transform="translate(133.640135, 33.017262)"><g><path d="M 1.953125 0 L 0.890625 0 L 0.890625 -6.171875 L 1.953125 -6.171875 Z M 0.796875 -7.8125 C 0.796875 -7.976562 0.847656 -8.117188 0.953125 -8.234375 C 1.066406 -8.359375 1.222656 -8.421875 1.421875 -8.421875 C 1.628906 -8.421875 1.785156 -8.359375 1.890625 -8.234375 C 1.992188 -8.117188 2.046875 -7.976562 2.046875 -7.8125 C 2.046875 -7.644531 1.992188 -7.503906 1.890625 -7.390625 C 1.785156 -7.273438 1.628906 -7.21875 1.421875 -7.21875 C 1.222656 -7.21875 1.066406 -7.273438 0.953125 -7.390625 C 0.847656 -7.503906 0.796875 -7.644531 0.796875 -7.8125 Z M 0.796875 -7.8125 "/></g></g><g transform="translate(136.476007, 33.017262)"><g><path d="M 0.546875 -3.140625 C 0.546875 -4.085938 0.769531 -4.847656 1.21875 -5.421875 C 1.664062 -5.992188 2.253906 -6.28125 2.984375 -6.28125 C 3.703125 -6.28125 4.273438 -6.035156 4.703125 -5.546875 L 4.703125 -8.765625 L 5.75 -8.765625 L 5.75 0 L 4.78125 0 L 4.734375 -0.65625 C 4.304688 -0.144531 3.71875 0.109375 2.96875 0.109375 C 2.25 0.109375 1.664062 -0.179688 1.21875 -0.765625 C 0.769531 -1.347656 0.546875 -2.113281 0.546875 -3.0625 Z M 1.59375 -3.015625 C 1.59375 -2.316406 1.738281 -1.769531 2.03125 -1.375 C 2.320312 -0.976562 2.722656 -0.78125 3.234375 -0.78125 C 3.898438 -0.78125 4.390625 -1.082031 4.703125 -1.6875 L 4.703125 -4.515625 C 4.378906 -5.097656 3.890625 -5.390625 3.234375 -5.390625 C 2.722656 -5.390625 2.320312 -5.1875 2.03125 -4.78125 C 1.738281 -4.382812 1.59375 -3.796875 1.59375 -3.015625 Z M 1.59375 -3.015625 "/></g></g><g transform="translate(143.066414, 33.017262)"><g><path d="M 3.359375 0.109375 C 2.523438 0.109375 1.84375 -0.160156 1.3125 -0.703125 C 0.789062 -1.253906 0.53125 -1.992188 0.53125 -2.921875 L 0.53125 -3.109375 C 0.53125 -3.722656 0.644531 -4.269531 0.875 -4.75 C 1.113281 -5.226562 1.441406 -5.601562 1.859375 -5.875 C 2.285156 -6.144531 2.742188 -6.28125 3.234375 -6.28125 C 4.035156 -6.28125 4.65625 -6.015625 5.09375 -5.484375 C 5.539062 -4.960938 5.765625 -4.207031 5.765625 -3.21875 L 5.765625 -2.78125 L 1.59375 -2.78125 C 1.601562 -2.175781 1.773438 -1.6875 2.109375 -1.3125 C 2.453125 -0.9375 2.890625 -0.75 3.421875 -0.75 C 3.796875 -0.75 4.109375 -0.820312 4.359375 -0.96875 C 4.617188 -1.125 4.847656 -1.328125 5.046875 -1.578125 L 5.6875 -1.078125 C 5.164062 -0.285156 4.390625 0.109375 3.359375 0.109375 Z M 3.234375 -5.421875 C 2.804688 -5.421875 2.445312 -5.265625 2.15625 -4.953125 C 1.863281 -4.640625 1.6875 -4.207031 1.625 -3.65625 L 4.71875 -3.65625 L 4.71875 -3.734375 C 4.6875 -4.265625 4.539062 -4.675781 4.28125 -4.96875 C 4.019531 -5.269531 3.671875 -5.421875 3.234375 -5.421875 Z M 3.234375 -5.421875 "/></g></g><g transform="translate(149.257403, 33.017262)"><g><path d="M 3.78125 -5.234375 C 3.625 -5.253906 3.453125 -5.265625 3.265625 -5.265625 C 2.566406 -5.265625 2.097656 -4.972656 1.859375 -4.390625 L 1.859375 0 L 0.796875 0 L 0.796875 -6.171875 L 1.828125 -6.171875 L 1.84375 -5.46875 C 2.1875 -6.007812 2.675781 -6.28125 3.3125 -6.28125 C 3.519531 -6.28125 3.675781 -6.253906 3.78125 -6.203125 Z M 3.78125 -5.234375 "/></g></g></g></svg>