<svg width="300" height="300" viewBox="0 0 300 300" fill="none" xmlns="http://www.w3.org/2000/svg">
<path d="M27.2656 189.746V212.558H23.125V194.574L17.6406 196.386V193.043L26.7969 189.746H27.2656ZM49.9844 199.23V203.058C49.9844 204.808 49.8073 206.303 49.4531 207.543C49.099 208.782 48.5885 209.798 47.9219 210.59C47.2552 211.371 46.4583 211.949 45.5312 212.324C44.6042 212.689 43.5729 212.871 42.4375 212.871C41.5312 212.871 40.6875 212.756 39.9062 212.527C39.125 212.287 38.4219 211.923 37.7969 211.433C37.1823 210.933 36.651 210.298 36.2031 209.527C35.7656 208.756 35.4271 207.834 35.1875 206.761C34.9583 205.689 34.8438 204.454 34.8438 203.058V199.23C34.8438 197.48 35.0208 195.991 35.375 194.761C35.7396 193.532 36.2552 192.527 36.9219 191.746C37.5885 190.965 38.3854 190.397 39.3125 190.043C40.2396 189.678 41.2708 189.496 42.4062 189.496C43.3229 189.496 44.1667 189.61 44.9375 189.84C45.7188 190.069 46.4167 190.428 47.0312 190.918C47.6562 191.397 48.1875 192.022 48.625 192.793C49.0625 193.553 49.3958 194.47 49.625 195.543C49.8646 196.605 49.9844 197.834 49.9844 199.23ZM45.8594 203.621V198.652C45.8594 197.777 45.8073 197.017 45.7031 196.371C45.6094 195.715 45.4688 195.157 45.2812 194.699C45.0938 194.241 44.8594 193.871 44.5781 193.59C44.2969 193.298 43.974 193.084 43.6094 192.949C43.2448 192.814 42.8438 192.746 42.4062 192.746C41.8646 192.746 41.3802 192.855 40.9531 193.074C40.526 193.282 40.1667 193.616 39.875 194.074C39.5833 194.532 39.3594 195.142 39.2031 195.902C39.0573 196.652 38.9844 197.569 38.9844 198.652V203.621C38.9844 204.496 39.0312 205.261 39.125 205.918C39.2292 206.574 39.375 207.136 39.5625 207.605C39.7604 208.074 39.9948 208.459 40.2656 208.761C40.5469 209.053 40.8698 209.272 41.2344 209.418C41.599 209.553 42 209.621 42.4375 209.621C42.9896 209.621 43.474 209.511 43.8906 209.293C44.3177 209.074 44.6771 208.73 44.9688 208.261C45.2604 207.782 45.4792 207.162 45.625 206.402C45.7812 205.631 45.8594 204.704 45.8594 203.621ZM68.2656 199.23V203.058C68.2656 204.808 68.0885 206.303 67.7344 207.543C67.3802 208.782 66.8698 209.798 66.2031 210.59C65.5365 211.371 64.7396 211.949 63.8125 212.324C62.8854 212.689 61.8542 212.871 60.7188 212.871C59.8125 212.871 58.9688 212.756 58.1875 212.527C57.4062 212.287 56.7031 211.923 56.0781 211.433C55.4635 210.933 54.9323 210.298 54.4844 209.527C54.0469 208.756 53.7083 207.834 53.4688 206.761C53.2396 205.689 53.125 204.454 53.125 203.058V199.23C53.125 197.48 53.3021 195.991 53.6562 194.761C54.0208 193.532 54.5365 192.527 55.2031 191.746C55.8698 190.965 56.6667 190.397 57.5938 190.043C58.5208 189.678 59.5521 189.496 60.6875 189.496C61.6042 189.496 62.4479 189.61 63.2188 189.84C64 190.069 64.6979 190.428 65.3125 190.918C65.9375 191.397 66.4688 192.022 66.9062 192.793C67.3438 193.553 67.6771 194.47 67.9062 195.543C68.1458 196.605 68.2656 197.834 68.2656 199.23ZM64.1406 203.621V198.652C64.1406 197.777 64.0885 197.017 63.9844 196.371C63.8906 195.715 63.75 195.157 63.5625 194.699C63.375 194.241 63.1406 193.871 62.8594 193.59C62.5781 193.298 62.2552 193.084 61.8906 192.949C61.526 192.814 61.125 192.746 60.6875 192.746C60.1458 192.746 59.6615 192.855 59.2344 193.074C58.8073 193.282 58.4479 193.616 58.1562 194.074C57.8646 194.532 57.6406 195.142 57.4844 195.902C57.3385 196.652 57.2656 197.569 57.2656 198.652V203.621C57.2656 204.496 57.3125 205.261 57.4062 205.918C57.5104 206.574 57.6562 207.136 57.8438 207.605C58.0417 208.074 58.276 208.459 58.5469 208.761C58.8281 209.053 59.151 209.272 59.5156 209.418C59.8802 209.553 60.2812 209.621 60.7188 209.621C61.2708 209.621 61.7552 209.511 62.1719 209.293C62.599 209.074 62.9583 208.73 63.25 208.261C63.5417 207.782 63.7604 207.162 63.9062 206.402C64.0625 205.631 64.1406 204.704 64.1406 203.621ZM71.375 195.386V194.183C71.375 193.319 71.5625 192.532 71.9375 191.824C72.3125 191.116 72.8594 190.548 73.5781 190.121C74.3073 189.694 75.1927 189.48 76.2344 189.48C77.2969 189.48 78.1875 189.694 78.9062 190.121C79.6354 190.548 80.1823 191.116 80.5469 191.824C80.9219 192.532 81.1094 193.319 81.1094 194.183V195.386C81.1094 196.23 80.9219 197.006 80.5469 197.715C80.1823 198.423 79.6406 198.991 78.9219 199.418C78.2031 199.845 77.3177 200.058 76.2656 200.058C75.2135 200.058 74.3229 199.845 73.5938 199.418C72.8646 198.991 72.3125 198.423 71.9375 197.715C71.5625 197.006 71.375 196.23 71.375 195.386ZM74.1719 194.183V195.386C74.1719 195.782 74.2448 196.157 74.3906 196.511C74.5469 196.855 74.7812 197.136 75.0938 197.355C75.4062 197.574 75.7969 197.683 76.2656 197.683C76.7344 197.683 77.1146 197.574 77.4062 197.355C77.7083 197.136 77.9323 196.855 78.0781 196.511C78.2344 196.157 78.3125 195.782 78.3125 195.386V194.183C78.3125 193.777 78.2344 193.397 78.0781 193.043C77.9323 192.689 77.7031 192.402 77.3906 192.183C77.0885 191.965 76.7031 191.855 76.2344 191.855C75.776 191.855 75.3906 191.965 75.0781 192.183C74.776 192.402 74.5469 192.689 74.3906 193.043C74.2448 193.397 74.1719 193.777 74.1719 194.183ZM82.2969 208.183V206.98C82.2969 206.126 82.4844 205.345 82.8594 204.636C83.2448 203.928 83.8021 203.36 84.5312 202.933C85.2604 202.506 86.1406 202.293 87.1719 202.293C88.2448 202.293 89.1406 202.506 89.8594 202.933C90.5781 203.36 91.1198 203.928 91.4844 204.636C91.8594 205.345 92.0469 206.126 92.0469 206.98V208.183C92.0469 209.037 91.8594 209.819 91.4844 210.527C91.1198 211.235 90.5781 211.803 89.8594 212.23C89.151 212.657 88.2708 212.871 87.2188 212.871C86.1667 212.871 85.2708 212.657 84.5312 212.23C83.8021 211.803 83.2448 211.235 82.8594 210.527C82.4844 209.819 82.2969 209.037 82.2969 208.183ZM85.1094 206.98V208.183C85.1094 208.59 85.1927 208.97 85.3594 209.324C85.526 209.668 85.7656 209.949 86.0781 210.168C86.401 210.386 86.776 210.496 87.2031 210.496C87.724 210.496 88.1354 210.386 88.4375 210.168C88.7396 209.949 88.9531 209.668 89.0781 209.324C89.2031 208.97 89.2656 208.59 89.2656 208.183V206.98C89.2656 206.574 89.1875 206.199 89.0312 205.855C88.875 205.501 88.6406 205.215 88.3281 204.996C88.026 204.777 87.6406 204.668 87.1719 204.668C86.7135 204.668 86.3281 204.777 86.0156 204.996C85.7135 205.215 85.4844 205.501 85.3281 205.855C85.1823 206.199 85.1094 206.574 85.1094 206.98ZM88.2031 193.058L77.0938 210.84L75.0469 209.699L86.1562 191.918L88.2031 193.058ZM112.891 205.652V189.808H117.188V205.652C117.188 207.162 116.859 208.459 116.203 209.543C115.547 210.616 114.651 211.439 113.516 212.011C112.38 212.584 111.099 212.871 109.672 212.871C108.203 212.871 106.901 212.626 105.766 212.136C104.63 211.636 103.74 210.876 103.094 209.855C102.458 208.834 102.141 207.537 102.141 205.965H106.453C106.453 206.819 106.583 207.506 106.844 208.027C107.104 208.548 107.474 208.923 107.953 209.152C108.443 209.381 109.016 209.496 109.672 209.496C110.307 209.496 110.865 209.35 111.344 209.058C111.833 208.756 112.214 208.319 112.484 207.746C112.755 207.173 112.891 206.475 112.891 205.652ZM120.406 204.277V203.949C120.406 202.709 120.583 201.569 120.938 200.527C121.292 199.475 121.807 198.564 122.484 197.793C123.161 197.022 123.99 196.423 124.969 195.996C125.948 195.558 127.062 195.34 128.312 195.34C129.583 195.34 130.708 195.558 131.688 195.996C132.677 196.423 133.51 197.022 134.188 197.793C134.865 198.564 135.38 199.475 135.734 200.527C136.089 201.569 136.266 202.709 136.266 203.949V204.277C136.266 205.506 136.089 206.647 135.734 207.699C135.38 208.741 134.865 209.652 134.188 210.433C133.51 211.204 132.682 211.803 131.703 212.23C130.724 212.657 129.604 212.871 128.344 212.871C127.094 212.871 125.974 212.657 124.984 212.23C123.995 211.803 123.161 211.204 122.484 210.433C121.807 209.652 121.292 208.741 120.938 207.699C120.583 206.647 120.406 205.506 120.406 204.277ZM124.531 203.949V204.277C124.531 205.017 124.604 205.709 124.75 206.355C124.896 207.001 125.12 207.569 125.422 208.058C125.724 208.548 126.115 208.933 126.594 209.215C127.083 209.485 127.667 209.621 128.344 209.621C129.01 209.621 129.583 209.485 130.062 209.215C130.542 208.933 130.932 208.548 131.234 208.058C131.547 207.569 131.776 207.001 131.922 206.355C132.068 205.709 132.141 205.017 132.141 204.277V203.949C132.141 203.22 132.068 202.537 131.922 201.902C131.776 201.256 131.547 200.689 131.234 200.199C130.932 199.699 130.536 199.308 130.047 199.027C129.568 198.735 128.99 198.59 128.312 198.59C127.646 198.59 127.073 198.735 126.594 199.027C126.115 199.308 125.724 199.699 125.422 200.199C125.12 200.689 124.896 201.256 124.75 201.902C124.604 202.537 124.531 203.22 124.531 203.949ZM139.25 188.558H143.391V208.824L142.984 212.558H139.25V188.558ZM154.266 203.933V204.261C154.266 205.522 154.125 206.678 153.844 207.73C153.573 208.782 153.161 209.694 152.609 210.465C152.057 211.225 151.37 211.819 150.547 212.246C149.734 212.662 148.781 212.871 147.688 212.871C146.646 212.871 145.74 212.668 144.969 212.261C144.208 211.855 143.568 211.282 143.047 210.543C142.526 209.793 142.109 208.912 141.797 207.902C141.484 206.881 141.25 205.767 141.094 204.558V203.668C141.25 202.449 141.484 201.334 141.797 200.324C142.109 199.314 142.526 198.433 143.047 197.683C143.568 196.933 144.208 196.355 144.969 195.949C145.729 195.543 146.625 195.34 147.656 195.34C148.76 195.34 149.724 195.553 150.547 195.98C151.38 196.397 152.068 196.991 152.609 197.761C153.161 198.522 153.573 199.428 153.844 200.48C154.125 201.522 154.266 202.673 154.266 203.933ZM150.125 204.261V203.933C150.125 203.215 150.068 202.537 149.953 201.902C149.839 201.256 149.651 200.689 149.391 200.199C149.13 199.709 148.776 199.324 148.328 199.043C147.88 198.761 147.318 198.621 146.641 198.621C145.995 198.621 145.443 198.73 144.984 198.949C144.536 199.168 144.161 199.47 143.859 199.855C143.568 200.241 143.339 200.694 143.172 201.215C143.016 201.735 142.911 202.298 142.859 202.902V205.34C142.932 206.142 143.104 206.866 143.375 207.511C143.646 208.147 144.047 208.652 144.578 209.027C145.12 209.402 145.818 209.59 146.672 209.59C147.339 209.59 147.896 209.459 148.344 209.199C148.792 208.928 149.146 208.553 149.406 208.074C149.667 207.584 149.849 207.017 149.953 206.371C150.068 205.725 150.125 205.022 150.125 204.261ZM177.453 206.652C177.453 206.215 177.385 205.824 177.25 205.48C177.125 205.126 176.891 204.808 176.547 204.527C176.214 204.235 175.74 203.954 175.125 203.683C174.521 203.402 173.74 203.11 172.781 202.808C171.719 202.475 170.729 202.1 169.812 201.683C168.896 201.267 168.089 200.782 167.391 200.23C166.703 199.678 166.167 199.043 165.781 198.324C165.396 197.595 165.203 196.751 165.203 195.793C165.203 194.855 165.401 194.001 165.797 193.23C166.203 192.459 166.776 191.798 167.516 191.246C168.255 190.683 169.125 190.251 170.125 189.949C171.135 189.647 172.25 189.496 173.469 189.496C175.156 189.496 176.615 189.803 177.844 190.418C179.083 191.032 180.042 191.866 180.719 192.918C181.396 193.97 181.734 195.152 181.734 196.465H177.453C177.453 195.756 177.302 195.131 177 194.59C176.708 194.048 176.26 193.621 175.656 193.308C175.062 192.996 174.312 192.84 173.406 192.84C172.531 192.84 171.802 192.97 171.219 193.23C170.646 193.491 170.214 193.845 169.922 194.293C169.641 194.741 169.5 195.241 169.5 195.793C169.5 196.209 169.599 196.584 169.797 196.918C169.995 197.241 170.292 197.548 170.688 197.84C171.083 198.121 171.573 198.386 172.156 198.636C172.75 198.876 173.438 199.116 174.219 199.355C175.469 199.73 176.562 200.147 177.5 200.605C178.448 201.064 179.234 201.584 179.859 202.168C180.495 202.751 180.969 203.407 181.281 204.136C181.604 204.866 181.766 205.694 181.766 206.621C181.766 207.6 181.573 208.475 181.188 209.246C180.802 210.017 180.25 210.673 179.531 211.215C178.812 211.756 177.948 212.168 176.938 212.449C175.938 212.73 174.818 212.871 173.578 212.871C172.474 212.871 171.38 212.725 170.297 212.433C169.224 212.131 168.25 211.683 167.375 211.09C166.5 210.485 165.802 209.725 165.281 208.808C164.76 207.881 164.5 206.798 164.5 205.558H168.812C168.812 206.277 168.927 206.892 169.156 207.402C169.396 207.902 169.729 208.314 170.156 208.636C170.594 208.949 171.104 209.178 171.688 209.324C172.271 209.47 172.901 209.543 173.578 209.543C174.453 209.543 175.172 209.423 175.734 209.183C176.307 208.933 176.734 208.59 177.016 208.152C177.307 207.715 177.453 207.215 177.453 206.652ZM194.828 208.543V195.652H198.984V212.558H195.078L194.828 208.543ZM195.359 205.043L196.641 205.011C196.641 206.147 196.516 207.194 196.266 208.152C196.016 209.11 195.625 209.944 195.094 210.652C194.573 211.35 193.911 211.897 193.109 212.293C192.307 212.678 191.359 212.871 190.266 212.871C189.432 212.871 188.672 212.756 187.984 212.527C187.297 212.287 186.703 211.918 186.203 211.418C185.714 210.907 185.333 210.256 185.062 209.465C184.792 208.662 184.656 207.699 184.656 206.574V195.652H188.781V206.605C188.781 207.168 188.844 207.636 188.969 208.011C189.104 208.386 189.286 208.694 189.516 208.933C189.755 209.162 190.031 209.329 190.344 209.433C190.667 209.527 191.01 209.574 191.375 209.574C192.375 209.574 193.161 209.376 193.734 208.98C194.318 208.574 194.734 208.032 194.984 207.355C195.234 206.668 195.359 205.897 195.359 205.043ZM209.578 209.621C210.161 209.621 210.682 209.506 211.141 209.277C211.599 209.048 211.964 208.725 212.234 208.308C212.516 207.892 212.667 207.407 212.688 206.855H216.578C216.557 208.001 216.234 209.027 215.609 209.933C214.984 210.84 214.151 211.558 213.109 212.09C212.078 212.61 210.922 212.871 209.641 212.871C208.339 212.871 207.203 212.652 206.234 212.215C205.266 211.777 204.458 211.168 203.812 210.386C203.177 209.605 202.698 208.699 202.375 207.668C202.062 206.636 201.906 205.532 201.906 204.355V203.855C201.906 202.678 202.062 201.574 202.375 200.543C202.698 199.511 203.177 198.605 203.812 197.824C204.458 197.043 205.266 196.433 206.234 195.996C207.203 195.558 208.333 195.34 209.625 195.34C210.99 195.34 212.188 195.605 213.219 196.136C214.26 196.668 215.073 197.418 215.656 198.386C216.25 199.355 216.557 200.496 216.578 201.808H212.688C212.667 201.204 212.531 200.662 212.281 200.183C212.031 199.704 211.677 199.319 211.219 199.027C210.76 198.735 210.203 198.59 209.547 198.59C208.849 198.59 208.266 198.735 207.797 199.027C207.339 199.319 206.979 199.72 206.719 200.23C206.469 200.73 206.292 201.293 206.188 201.918C206.094 202.532 206.047 203.178 206.047 203.855V204.355C206.047 205.043 206.094 205.699 206.188 206.324C206.292 206.949 206.469 207.511 206.719 208.011C206.979 208.501 207.339 208.892 207.797 209.183C208.266 209.475 208.859 209.621 209.578 209.621ZM226.266 209.621C226.849 209.621 227.37 209.506 227.828 209.277C228.286 209.048 228.651 208.725 228.922 208.308C229.203 207.892 229.354 207.407 229.375 206.855H233.266C233.245 208.001 232.922 209.027 232.297 209.933C231.672 210.84 230.839 211.558 229.797 212.09C228.766 212.61 227.609 212.871 226.328 212.871C225.026 212.871 223.891 212.652 222.922 212.215C221.953 211.777 221.146 211.168 220.5 210.386C219.865 209.605 219.385 208.699 219.062 207.668C218.75 206.636 218.594 205.532 218.594 204.355V203.855C218.594 202.678 218.75 201.574 219.062 200.543C219.385 199.511 219.865 198.605 220.5 197.824C221.146 197.043 221.953 196.433 222.922 195.996C223.891 195.558 225.021 195.34 226.312 195.34C227.677 195.34 228.875 195.605 229.906 196.136C230.948 196.668 231.76 197.418 232.344 198.386C232.938 199.355 233.245 200.496 233.266 201.808H229.375C229.354 201.204 229.219 200.662 228.969 200.183C228.719 199.704 228.365 199.319 227.906 199.027C227.448 198.735 226.891 198.59 226.234 198.59C225.536 198.59 224.953 198.735 224.484 199.027C224.026 199.319 223.667 199.72 223.406 200.23C223.156 200.73 222.979 201.293 222.875 201.918C222.781 202.532 222.734 203.178 222.734 203.855V204.355C222.734 205.043 222.781 205.699 222.875 206.324C222.979 206.949 223.156 207.511 223.406 208.011C223.667 208.501 224.026 208.892 224.484 209.183C224.953 209.475 225.547 209.621 226.266 209.621ZM243.609 212.871C242.328 212.871 241.177 212.662 240.156 212.246C239.135 211.829 238.266 211.251 237.547 210.511C236.839 209.761 236.292 208.892 235.906 207.902C235.531 206.902 235.344 205.829 235.344 204.683V204.058C235.344 202.756 235.531 201.574 235.906 200.511C236.281 199.439 236.812 198.517 237.5 197.746C238.188 196.975 239.01 196.381 239.969 195.965C240.927 195.548 241.984 195.34 243.141 195.34C244.339 195.34 245.396 195.543 246.312 195.949C247.229 196.345 247.995 196.907 248.609 197.636C249.224 198.366 249.688 199.241 250 200.261C250.312 201.272 250.469 202.392 250.469 203.621V205.355H237.219V202.511H246.406V202.199C246.385 201.543 246.26 200.944 246.031 200.402C245.802 199.85 245.448 199.412 244.969 199.09C244.49 198.756 243.87 198.59 243.109 198.59C242.495 198.59 241.958 198.725 241.5 198.996C241.052 199.256 240.677 199.631 240.375 200.121C240.083 200.6 239.865 201.173 239.719 201.84C239.573 202.506 239.5 203.246 239.5 204.058V204.683C239.5 205.392 239.594 206.048 239.781 206.652C239.979 207.256 240.266 207.782 240.641 208.23C241.026 208.668 241.484 209.011 242.016 209.261C242.557 209.501 243.172 209.621 243.859 209.621C244.724 209.621 245.505 209.454 246.203 209.121C246.911 208.777 247.526 208.272 248.047 207.605L250.125 209.761C249.771 210.282 249.292 210.782 248.688 211.261C248.094 211.741 247.375 212.131 246.531 212.433C245.688 212.725 244.714 212.871 243.609 212.871ZM262.531 207.933C262.531 207.579 262.438 207.261 262.25 206.98C262.062 206.699 261.708 206.444 261.188 206.215C260.677 205.975 259.927 205.751 258.938 205.543C258.062 205.355 257.255 205.121 256.516 204.84C255.776 204.558 255.141 204.22 254.609 203.824C254.078 203.418 253.661 202.944 253.359 202.402C253.068 201.85 252.922 201.215 252.922 200.496C252.922 199.798 253.073 199.142 253.375 198.527C253.677 197.902 254.115 197.355 254.688 196.886C255.26 196.407 255.958 196.032 256.781 195.761C257.604 195.48 258.531 195.34 259.562 195.34C261 195.34 262.234 195.574 263.266 196.043C264.307 196.511 265.104 197.157 265.656 197.98C266.208 198.793 266.484 199.709 266.484 200.73H262.359C262.359 200.282 262.255 199.876 262.047 199.511C261.849 199.147 261.542 198.855 261.125 198.636C260.708 198.407 260.182 198.293 259.547 198.293C258.974 198.293 258.49 198.386 258.094 198.574C257.708 198.761 257.417 199.006 257.219 199.308C257.021 199.61 256.922 199.944 256.922 200.308C256.922 200.579 256.974 200.824 257.078 201.043C257.193 201.251 257.375 201.444 257.625 201.621C257.875 201.798 258.214 201.959 258.641 202.105C259.078 202.251 259.615 202.392 260.25 202.527C261.51 202.777 262.609 203.11 263.547 203.527C264.495 203.933 265.234 204.475 265.766 205.152C266.297 205.829 266.562 206.694 266.562 207.746C266.562 208.496 266.401 209.183 266.078 209.808C265.755 210.423 265.286 210.959 264.672 211.418C264.057 211.876 263.323 212.235 262.469 212.496C261.615 212.746 260.651 212.871 259.578 212.871C258.026 212.871 256.714 212.595 255.641 212.043C254.568 211.48 253.755 210.772 253.203 209.918C252.651 209.053 252.375 208.157 252.375 207.23H256.328C256.359 207.886 256.536 208.412 256.859 208.808C257.182 209.204 257.589 209.491 258.078 209.668C258.578 209.834 259.104 209.918 259.656 209.918C260.281 209.918 260.807 209.834 261.234 209.668C261.661 209.491 261.984 209.256 262.203 208.965C262.422 208.662 262.531 208.319 262.531 207.933ZM279 207.933C279 207.579 278.906 207.261 278.719 206.98C278.531 206.699 278.177 206.444 277.656 206.215C277.146 205.975 276.396 205.751 275.406 205.543C274.531 205.355 273.724 205.121 272.984 204.84C272.245 204.558 271.609 204.22 271.078 203.824C270.547 203.418 270.13 202.944 269.828 202.402C269.536 201.85 269.391 201.215 269.391 200.496C269.391 199.798 269.542 199.142 269.844 198.527C270.146 197.902 270.583 197.355 271.156 196.886C271.729 196.407 272.427 196.032 273.25 195.761C274.073 195.48 275 195.34 276.031 195.34C277.469 195.34 278.703 195.574 279.734 196.043C280.776 196.511 281.573 197.157 282.125 197.98C282.677 198.793 282.953 199.709 282.953 200.73H278.828C278.828 200.282 278.724 199.876 278.516 199.511C278.318 199.147 278.01 198.855 277.594 198.636C277.177 198.407 276.651 198.293 276.016 198.293C275.443 198.293 274.958 198.386 274.562 198.574C274.177 198.761 273.885 199.006 273.688 199.308C273.49 199.61 273.391 199.944 273.391 200.308C273.391 200.579 273.443 200.824 273.547 201.043C273.661 201.251 273.844 201.444 274.094 201.621C274.344 201.798 274.682 201.959 275.109 202.105C275.547 202.251 276.083 202.392 276.719 202.527C277.979 202.777 279.078 203.11 280.016 203.527C280.964 203.933 281.703 204.475 282.234 205.152C282.766 205.829 283.031 206.694 283.031 207.746C283.031 208.496 282.87 209.183 282.547 209.808C282.224 210.423 281.755 210.959 281.141 211.418C280.526 211.876 279.792 212.235 278.938 212.496C278.083 212.746 277.12 212.871 276.047 212.871C274.495 212.871 273.182 212.595 272.109 212.043C271.036 211.48 270.224 210.772 269.672 209.918C269.12 209.053 268.844 208.157 268.844 207.23H272.797C272.828 207.886 273.005 208.412 273.328 208.808C273.651 209.204 274.057 209.491 274.547 209.668C275.047 209.834 275.573 209.918 276.125 209.918C276.75 209.918 277.276 209.834 277.703 209.668C278.13 209.491 278.453 209.256 278.672 208.965C278.891 208.662 279 208.319 279 207.933Z" fill="white"/>
<path d="M188.525 96.8337C177.348 96.8873 168.243 106.074 168.295 117.512C168.346 128.95 177.542 138.05 188.718 137.998C199.895 137.947 209.002 128.758 208.948 117.325C208.895 105.892 199.701 96.7847 188.52 96.8383L188.525 96.8337ZM188.679 129.61C185.51 129.629 182.465 128.385 180.213 126.157C177.962 123.928 176.713 120.893 176.678 117.724C176.643 114.555 177.903 111.51 180.132 109.259C182.36 107.007 185.396 105.759 188.564 105.724C191.733 105.689 194.778 106.949 197.03 109.177C199.281 111.405 200.53 114.441 200.565 117.61C200.597 123.968 195.035 129.577 188.679 129.61ZM233.805 106.529C227.96 106.557 223.408 111.405 223.436 117.25L223.529 136.815L214.635 136.857L214.455 97.977L223.35 97.935L223.38 104.032C223.38 104.032 227.16 97.9187 234.785 97.8837L237.329 97.8697L237.371 106.508L233.805 106.529ZM145.078 98.3083L151.812 124.96L158.803 98.243L167.697 98.2033L156.693 137.158L148.055 137.198L141.069 110.043L134.335 137.261L125.695 137.301L114.08 98.474L122.718 98.4343L130.464 125.081L136.694 98.369L145.078 98.3083ZM263.32 115.542C269.398 111.958 273.691 105.329 273.656 97.7063L264.762 97.7483C264.794 104.356 259.479 109.718 253.128 109.742L251.856 109.746L251.716 79L242.821 79.042L243.094 136.722L251.984 136.682L251.9 118.389L252.915 118.384C253.933 118.38 254.952 118.884 255.211 119.644L267.741 136.608L278.16 136.561L263.32 115.542Z" fill="white"/>
<path d="M93.4903 97.2816C83.8373 97.3283 76.4967 103.715 73.7503 113.89C69.142 106.797 65.5463 98.684 63.4837 91.8333L53.322 91.88L53.448 118.814C53.4592 121.374 52.4531 123.835 50.6509 125.654C48.8486 127.473 46.3978 128.503 43.837 128.516C41.2762 128.527 38.8158 127.521 36.9965 125.718C35.1772 123.916 34.148 121.465 34.135 118.905L34.0067 91.971L23.8403 92.0176L23.9663 118.951C24.02 130.128 32.9497 138.985 43.879 138.932C54.8083 138.878 63.661 129.944 63.6097 118.765L63.5863 114.191C65.635 118.244 68.197 122.552 71.0133 126.353L64.7997 156.11L75.2157 156.063L79.6957 134.442C83.772 136.967 88.329 138.467 93.6863 138.442C104.868 138.388 113.975 129.202 113.916 117.512C113.874 112.126 111.702 106.975 107.876 103.185C104.049 99.3941 98.8788 97.2711 93.4927 97.2793L93.4903 97.2816ZM93.635 128.028C89.5703 128.047 85.4987 126.287 82.183 123.506L83.1793 119.439V119.206C83.926 114.88 86.1707 107.502 93.796 107.469C96.4847 107.465 99.0663 108.522 100.979 110.412C102.892 112.301 103.981 114.87 104.009 117.558C103.78 123.403 98.976 128 93.6373 128.026L93.635 128.028Z" fill="#6FDA44"/>
</svg>
