<svg xmlns="http://www.w3.org/2000/svg" xmlns:xlink="http://www.w3.org/1999/xlink" width="160" viewBox="0 0 120 89.999999" height="120" preserveAspectRatio="xMidYMid meet"><defs><clipPath id="58f5ad70e2"><path d="M 0 28.78125 L 31 28.78125 L 31 61.03125 L 0 61.03125 Z M 0 28.78125 " clip-rule="nonzero"></path></clipPath><clipPath id="cd90aad82f"><path d="M 15 28.78125 L 31 28.78125 L 31 61.03125 L 15 61.03125 Z M 15 28.78125 " clip-rule="nonzero"></path></clipPath></defs><path fill="#b52e31" d="M 35.332031 52.699219 L 35.332031 38.042969 L 37.226562 38.042969 L 46.238281 49.839844 L 46.238281 38.042969 L 48.039062 38.042969 L 48.039062 52.699219 L 46.144531 52.699219 L 37.132812 40.789062 L 37.132812 52.699219 Z M 62.714844 52.121094 C 61.519531 52.5625 60.234375 52.792969 58.875 52.792969 C 53.539062 52.792969 50.871094 50.257812 50.871094 45.164062 C 50.871094 40.34375 53.445312 37.925781 58.597656 37.925781 C 60.070312 37.925781 61.449219 38.136719 62.714844 38.53125 L 62.714844 40.160156 C 61.449219 39.671875 60.140625 39.4375 58.804688 39.4375 C 54.78125 39.4375 52.769531 41.347656 52.769531 45.117188 C 52.769531 49.1875 54.757812 51.210938 58.710938 51.210938 C 59.34375 51.210938 60.046875 51.117188 60.820312 50.957031 L 60.820312 46.046875 L 62.714844 46.046875 Z M 65.757812 47.046875 L 65.757812 38.042969 L 67.652344 38.042969 L 67.652344 47.046875 C 67.652344 49.863281 69.058594 51.28125 71.890625 51.28125 C 74.699219 51.28125 76.125 49.863281 76.125 47.046875 L 76.125 38.042969 L 78.019531 38.042969 L 78.019531 47.046875 C 78.019531 50.886719 75.984375 52.816406 71.890625 52.816406 C 67.792969 52.816406 65.757812 50.886719 65.757812 47.046875 Z M 83.308594 38.042969 L 83.308594 51.164062 L 91.035156 51.164062 L 91.035156 52.699219 L 81.414062 52.699219 L 81.414062 38.042969 Z M 93.773438 52.699219 L 91.78125 52.699219 L 99.109375 36.109375 L 106.433594 52.699219 L 104.328125 52.699219 L 102.429688 48.09375 L 97.5625 48.09375 L 98.078125 46.558594 L 101.800781 46.558594 L 99.039062 39.925781 Z M 108.46875 52.699219 L 108.46875 38.042969 L 114.765625 38.042969 C 117.574219 38.042969 118.976562 39.207031 118.976562 41.554688 C 118.976562 43.464844 117.597656 44.882812 114.859375 45.789062 L 119.914062 52.699219 L 117.410156 52.699219 L 112.726562 46.117188 L 112.726562 44.882812 C 115.535156 44.441406 116.964844 43.371094 116.964844 41.648438 C 116.964844 40.300781 116.191406 39.625 114.625 39.625 L 110.410156 39.625 L 110.410156 52.699219 Z M 108.46875 52.699219 " fill-opacity="1" fill-rule="evenodd"></path><g clip-path="url(#58f5ad70e2)"><path fill="#e23237" d="M 0.0859375 34.132812 L 15.183594 28.78125 L 30.675781 34.039062 L 28.171875 53.886719 L 15.183594 61.03125 L 2.402344 53.980469 Z M 0.0859375 34.132812 " fill-opacity="1" fill-rule="evenodd"></path></g><g clip-path="url(#cd90aad82f)"><path fill="#b52e31" d="M 30.675781 34.039062 L 15.183594 28.78125 L 15.183594 61.03125 L 28.171875 53.886719 Z M 30.675781 34.039062 " fill-opacity="1" fill-rule="evenodd"></path></g><path fill="#ffffff" d="M 15.207031 32.550781 L 5.796875 53.351562 L 9.308594 53.28125 L 11.203125 48.582031 L 19.605469 48.582031 L 21.664062 53.328125 L 25.011719 53.398438 Z M 15.230469 39.230469 L 18.410156 45.835938 L 12.445312 45.835938 Z M 15.230469 39.230469 " fill-opacity="1" fill-rule="evenodd"></path></svg>