<svg xmlns="http://www.w3.org/2000/svg" xmlns:xlink="http://www.w3.org/1999/xlink" width="160" viewBox="0 0 120 89.999999" height="120" preserveAspectRatio="xMidYMid meet"><defs><clipPath id="6ff99eec55"><path d="M 0 27.761719 L 95 27.761719 L 95 62 L 0 62 Z M 0 27.761719 " clip-rule="nonzero"></path></clipPath></defs><path fill="#83cd29" d="M 110.398438 40.035156 C 110.105469 40.035156 109.820312 40.09375 109.570312 40.238281 L 101.613281 44.835938 C 101.097656 45.132812 100.785156 45.695312 100.785156 46.289062 L 100.785156 55.472656 C 100.785156 56.070312 101.097656 56.628906 101.613281 56.925781 L 103.691406 58.125 C 104.699219 58.625 105.074219 58.617188 105.53125 58.617188 C 107.027344 58.617188 107.878906 57.707031 107.878906 56.128906 L 107.878906 47.070312 C 107.878906 46.941406 107.769531 46.851562 107.644531 46.851562 L 106.648438 46.851562 C 106.519531 46.851562 106.410156 46.945312 106.410156 47.070312 L 106.410156 56.132812 C 106.410156 56.832031 105.683594 57.535156 104.503906 56.945312 L 102.34375 55.675781 C 102.265625 55.636719 102.207031 55.558594 102.207031 55.472656 L 102.207031 46.292969 C 102.207031 46.207031 102.265625 46.117188 102.34375 46.074219 L 110.28125 41.488281 C 110.355469 41.445312 110.445312 41.445312 110.519531 41.488281 L 118.457031 46.074219 C 118.535156 46.117188 118.59375 46.203125 118.59375 46.292969 L 118.59375 55.472656 C 118.59375 55.5625 118.550781 55.652344 118.476562 55.695312 L 110.519531 60.277344 C 110.449219 60.316406 110.355469 60.316406 110.28125 60.277344 L 108.238281 59.058594 C 108.175781 59.023438 108.09375 59.027344 108.035156 59.058594 C 107.472656 59.378906 107.367188 59.417969 106.835938 59.601562 C 106.707031 59.644531 106.507812 59.71875 106.902344 59.9375 L 109.574219 61.515625 C 109.828125 61.660156 110.109375 61.734375 110.402344 61.734375 C 110.695312 61.734375 110.972656 61.664062 111.230469 61.515625 L 119.183594 56.929688 C 119.699219 56.632812 120.011719 56.074219 120.011719 55.476562 L 120.011719 46.292969 C 120.011719 45.699219 119.699219 45.136719 119.183594 44.839844 L 111.230469 40.242188 C 110.980469 40.097656 110.691406 40.039062 110.402344 40.039062 Z M 112.527344 46.59375 C 110.261719 46.59375 108.910156 47.5625 108.910156 49.164062 C 108.910156 50.90625 110.25 51.386719 112.425781 51.601562 C 115.027344 51.855469 115.230469 52.238281 115.230469 52.75 C 115.230469 53.640625 114.519531 54.019531 112.847656 54.019531 C 110.746094 54.019531 110.28125 53.492188 110.128906 52.445312 C 110.109375 52.332031 110.023438 52.242188 109.90625 52.242188 L 108.875 52.242188 C 108.722656 52.246094 108.640625 52.324219 108.640625 52.476562 C 108.640625 53.816406 109.367188 55.402344 112.84375 55.402344 C 115.363281 55.402344 116.816406 54.414062 116.816406 52.679688 C 116.816406 50.964844 115.640625 50.5 113.199219 50.175781 C 110.734375 49.847656 110.496094 49.691406 110.496094 49.113281 C 110.496094 48.632812 110.695312 47.996094 112.523438 47.996094 C 114.15625 47.996094 114.761719 48.347656 115.007812 49.449219 C 115.027344 49.554688 115.121094 49.636719 115.226562 49.636719 L 116.261719 49.636719 C 116.324219 49.636719 116.382812 49.597656 116.429688 49.554688 C 116.472656 49.503906 116.503906 49.449219 116.496094 49.382812 C 116.335938 47.488281 115.074219 46.59375 112.527344 46.59375 Z M 112.527344 46.59375 " fill-opacity="1" fill-rule="nonzero"></path><g clip-path="url(#6ff99eec55)"><path fill="#404137" d="M 63.625 27.996094 C 63.53125 27.996094 63.449219 28.019531 63.371094 28.066406 C 63.203125 28.164062 63.117188 28.308594 63.117188 28.503906 L 63.117188 41.441406 C 63.117188 41.566406 63.058594 41.679688 62.949219 41.746094 C 62.828125 41.8125 62.710938 41.8125 62.59375 41.746094 L 60.480469 40.527344 C 60.144531 40.332031 59.804688 40.332031 59.46875 40.527344 L 51.039062 45.398438 C 50.722656 45.578125 50.53125 45.929688 50.53125 46.292969 L 50.53125 56.03125 C 50.53125 56.425781 50.699219 56.71875 51.039062 56.914062 L 59.46875 61.78125 C 59.804688 61.980469 60.144531 61.980469 60.480469 61.78125 L 68.910156 56.914062 C 69.25 56.71875 69.417969 56.425781 69.417969 56.03125 L 69.417969 31.75 C 69.417969 31.382812 69.214844 31.035156 68.894531 30.855469 L 63.878906 28.046875 C 63.796875 28.003906 63.710938 27.996094 63.625 27.996094 Z M 9.398438 40.15625 C 9.238281 40.160156 9.085938 40.191406 8.945312 40.273438 L 0.515625 45.144531 C 0.175781 45.339844 0.0078125 45.632812 0.0078125 46.023438 L 0.0234375 59.09375 C 0.0234375 59.277344 0.117188 59.445312 0.277344 59.535156 C 0.433594 59.628906 0.628906 59.628906 0.785156 59.535156 L 5.785156 56.660156 C 6.101562 56.472656 6.308594 56.144531 6.308594 55.78125 L 6.308594 49.675781 C 6.308594 49.3125 6.5 48.976562 6.816406 48.796875 L 8.945312 47.5625 C 9.101562 47.46875 9.269531 47.425781 9.449219 47.425781 C 9.632812 47.425781 9.800781 47.46875 9.957031 47.5625 L 12.085938 48.796875 C 12.402344 48.976562 12.59375 49.308594 12.59375 49.675781 L 12.59375 55.777344 C 12.59375 56.140625 12.804688 56.472656 13.117188 56.65625 L 18.117188 59.53125 C 18.273438 59.625 18.464844 59.625 18.621094 59.53125 C 18.777344 59.441406 18.875 59.273438 18.875 59.09375 L 18.894531 46.023438 C 18.894531 45.628906 18.726562 45.335938 18.386719 45.144531 L 9.957031 40.273438 C 9.816406 40.191406 9.664062 40.164062 9.5 40.15625 Z M 85.144531 40.273438 C 84.960938 40.273438 84.792969 40.320312 84.636719 40.410156 L 76.207031 45.277344 C 75.890625 45.460938 75.699219 45.792969 75.699219 46.15625 L 75.699219 55.898438 C 75.699219 56.265625 75.90625 56.597656 76.222656 56.777344 L 84.585938 61.546875 C 84.894531 61.722656 85.269531 61.738281 85.582031 61.5625 L 90.648438 58.738281 C 90.808594 58.652344 90.917969 58.484375 90.917969 58.300781 C 90.917969 58.117188 90.824219 57.953125 90.664062 57.859375 L 82.183594 52.992188 C 82.027344 52.902344 81.914062 52.71875 81.914062 52.535156 L 81.914062 49.488281 C 81.914062 49.308594 82.027344 49.140625 82.183594 49.050781 L 84.820312 47.527344 C 84.976562 47.4375 85.167969 47.4375 85.328125 47.527344 L 87.96875 49.050781 C 88.136719 49.148438 88.222656 49.292969 88.222656 49.488281 L 88.222656 51.890625 C 88.222656 52.085938 88.304688 52.230469 88.476562 52.328125 C 88.632812 52.421875 88.824219 52.421875 88.984375 52.328125 L 94.03125 49.386719 C 94.347656 49.203125 94.539062 48.871094 94.539062 48.507812 L 94.539062 46.15625 C 94.539062 45.765625 94.371094 45.472656 94.03125 45.277344 L 85.65625 40.410156 C 85.496094 40.316406 85.328125 40.273438 85.148438 40.273438 Z M 59.941406 47.546875 C 59.988281 47.546875 60.03125 47.554688 60.074219 47.578125 L 62.964844 49.253906 C 63.042969 49.296875 63.097656 49.382812 63.097656 49.472656 L 63.097656 52.820312 C 63.097656 52.910156 63.042969 52.996094 62.964844 53.039062 L 60.074219 54.714844 C 59.996094 54.757812 59.898438 54.757812 59.820312 54.714844 L 56.933594 53.039062 C 56.855469 52.996094 56.796875 52.910156 56.796875 52.820312 L 56.796875 49.472656 C 56.796875 49.382812 56.855469 49.300781 56.933594 49.253906 L 59.820312 47.578125 C 59.859375 47.558594 59.894531 47.546875 59.941406 47.546875 Z M 59.941406 47.546875 " fill-opacity="1" fill-rule="nonzero"></path></g><path fill="#83cd29" d="M 34.71875 40.222656 C 34.539062 40.222656 34.371094 40.269531 34.214844 40.359375 L 25.785156 45.210938 C 25.46875 45.394531 25.277344 45.742188 25.277344 46.105469 L 25.277344 55.847656 C 25.277344 56.238281 25.445312 56.53125 25.785156 56.726562 L 34.214844 61.597656 C 34.550781 61.792969 34.890625 61.792969 35.226562 61.597656 L 43.65625 56.726562 C 43.996094 56.53125 44.164062 56.238281 44.164062 55.847656 L 44.164062 46.109375 C 44.164062 45.742188 43.972656 45.394531 43.65625 45.210938 L 35.226562 40.359375 C 35.070312 40.269531 34.902344 40.222656 34.71875 40.222656 Z M 85.125 48.914062 C 85.09375 48.914062 85.054688 48.914062 85.023438 48.929688 L 83.402344 49.878906 C 83.335938 49.914062 83.304688 49.972656 83.300781 50.046875 L 83.300781 51.90625 C 83.300781 51.976562 83.34375 52.039062 83.402344 52.078125 L 85.023438 53.007812 C 85.085938 53.042969 85.148438 53.042969 85.210938 53.007812 L 86.832031 52.078125 C 86.890625 52.042969 86.933594 51.976562 86.933594 51.90625 L 86.933594 50.046875 C 86.933594 49.976562 86.890625 49.914062 86.832031 49.878906 L 85.210938 48.929688 C 85.179688 48.914062 85.160156 48.914062 85.125 48.914062 Z M 85.125 48.914062 " fill-opacity="1" fill-rule="nonzero"></path></svg>