<svg xmlns="http://www.w3.org/2000/svg" xmlns:xlink="http://www.w3.org/1999/xlink" width="160" zoomAndPan="magnify" viewBox="0 0 120 89.999999" height="120" preserveAspectRatio="xMidYMid meet" version="1.0"><defs><clipPath id="7b863e9b41"><path d="M 0 32.78125 L 41 32.78125 L 41 57.53125 L 0 57.53125 Z M 0 32.78125 " clip-rule="nonzero"/></clipPath></defs><g clip-path="url(#7b863e9b41)"><path fill="#7f54b3" d="M 36.859375 32.785156 L 3.773438 32.785156 C 1.679688 32.785156 -0.015625 34.519531 0 36.625 L 0 49.417969 C 0 51.539062 1.695312 53.253906 3.789062 53.253906 L 19.460938 53.253906 L 26.621094 57.296875 L 24.992188 53.253906 L 36.859375 53.253906 C 38.953125 53.253906 40.648438 51.539062 40.648438 49.417969 L 40.648438 36.625 C 40.648438 34.503906 38.953125 32.785156 36.859375 32.785156 Z M 3.074219 35.75 C 2.609375 35.78125 2.261719 35.949219 2.027344 36.269531 C 1.796875 36.574219 1.710938 36.960938 1.761719 37.398438 C 2.742188 43.710938 3.65625 47.96875 4.503906 50.175781 C 4.835938 50.984375 5.21875 51.371094 5.667969 51.335938 C 6.363281 51.285156 7.195312 50.308594 8.175781 48.40625 C 8.691406 47.332031 9.488281 45.714844 10.570312 43.558594 C 11.464844 46.742188 12.695312 49.132812 14.242188 50.730469 C 14.675781 51.183594 15.121094 51.386719 15.554688 51.351562 C 15.9375 51.320312 16.234375 51.117188 16.433594 50.746094 C 16.601562 50.425781 16.667969 50.058594 16.636719 49.636719 C 16.535156 48.105469 16.683594 45.96875 17.101562 43.222656 C 17.53125 40.394531 18.0625 38.359375 18.710938 37.144531 C 18.84375 36.894531 18.894531 36.640625 18.878906 36.339844 C 18.84375 35.949219 18.679688 35.632812 18.363281 35.378906 C 18.046875 35.125 17.699219 35.007812 17.316406 35.042969 C 16.835938 35.074219 16.46875 35.3125 16.21875 35.78125 C 15.1875 37.683594 14.457031 40.765625 14.027344 45.039062 C 13.394531 43.425781 12.863281 41.523438 12.445312 39.285156 C 12.265625 38.289062 11.816406 37.820312 11.085938 37.871094 C 10.585938 37.902344 10.171875 38.242188 9.839844 38.878906 L 6.199219 45.898438 C 5.601562 43.457031 5.035156 40.480469 4.519531 36.960938 C 4.402344 36.085938 3.921875 35.679688 3.074219 35.75 Z M 35.097656 36.960938 C 36.277344 37.214844 37.160156 37.851562 37.757812 38.914062 C 38.289062 39.824219 38.554688 40.917969 38.554688 42.230469 C 38.554688 43.964844 38.121094 45.546875 37.257812 46.992188 C 36.261719 48.675781 34.964844 49.519531 33.351562 49.519531 C 33.070312 49.519531 32.769531 49.484375 32.457031 49.417969 C 31.277344 49.164062 30.394531 48.527344 29.796875 47.464844 C 29.265625 46.539062 29 45.429688 29 44.132812 C 29 42.398438 29.429688 40.816406 30.296875 39.386719 C 31.308594 37.703125 32.605469 36.859375 34.199219 36.859375 C 34.484375 36.859375 34.78125 36.894531 35.097656 36.960938 Z M 34.398438 46.066406 C 35.015625 45.511719 35.429688 44.6875 35.664062 43.578125 C 35.730469 43.1875 35.777344 42.769531 35.777344 42.332031 C 35.777344 41.84375 35.679688 41.320312 35.480469 40.800781 C 35.230469 40.140625 34.898438 39.789062 34.5 39.703125 C 33.902344 39.585938 33.320312 39.921875 32.769531 40.75 C 32.324219 41.386719 32.039062 42.0625 31.890625 42.75 C 31.808594 43.140625 31.773438 43.558594 31.773438 43.980469 C 31.773438 44.46875 31.875 44.992188 32.074219 45.511719 C 32.324219 46.167969 32.65625 46.523438 33.054688 46.605469 C 33.46875 46.691406 33.917969 46.503906 34.398438 46.066406 Z M 27.335938 38.914062 C 26.738281 37.851562 25.839844 37.214844 24.679688 36.960938 C 24.363281 36.894531 24.0625 36.859375 23.78125 36.859375 C 22.183594 36.859375 20.890625 37.703125 19.875 39.386719 C 19.011719 40.816406 18.578125 42.398438 18.578125 44.132812 C 18.578125 45.429688 18.84375 46.539062 19.375 47.464844 C 19.976562 48.527344 20.855469 49.164062 22.035156 49.417969 C 22.351562 49.484375 22.652344 49.519531 22.933594 49.519531 C 24.546875 49.519531 25.839844 48.675781 26.839844 46.992188 C 27.703125 45.546875 28.132812 43.964844 28.132812 42.230469 C 28.132812 40.917969 27.867188 39.824219 27.335938 38.914062 Z M 25.242188 43.578125 C 25.011719 44.6875 24.59375 45.511719 23.980469 46.066406 C 23.5 46.503906 23.050781 46.691406 22.632812 46.605469 C 22.234375 46.523438 21.902344 46.167969 21.652344 45.511719 C 21.453125 44.992188 21.355469 44.46875 21.355469 43.980469 C 21.355469 43.558594 21.386719 43.140625 21.472656 42.75 C 21.621094 42.0625 21.902344 41.386719 22.351562 40.75 C 22.898438 39.921875 23.480469 39.585938 24.078125 39.703125 C 24.480469 39.789062 24.8125 40.140625 25.058594 40.800781 C 25.261719 41.320312 25.359375 41.84375 25.359375 42.332031 C 25.359375 42.769531 25.328125 43.1875 25.242188 43.578125 Z M 25.242188 43.578125 " fill-opacity="1" fill-rule="evenodd"/></g><path fill="#000000" d="M 44.851562 38.761719 C 43.738281 39.875 43.191406 41.285156 43.191406 43.003906 C 43.191406 44.839844 43.738281 46.335938 44.835938 47.464844 C 45.933594 48.59375 47.363281 49.164062 49.140625 49.164062 C 49.65625 49.164062 50.238281 49.082031 50.867188 48.894531 L 50.867188 46.167969 C 50.285156 46.335938 49.789062 46.421875 49.355469 46.421875 C 48.476562 46.421875 47.777344 46.117188 47.246094 45.527344 C 46.714844 44.921875 46.449219 44.113281 46.449219 43.089844 C 46.449219 42.128906 46.714844 41.335938 47.230469 40.730469 C 47.761719 40.109375 48.410156 39.804688 49.207031 39.804688 C 49.722656 39.804688 50.269531 39.890625 50.867188 40.058594 L 50.867188 37.332031 C 50.320312 37.179688 49.707031 37.113281 49.058594 37.113281 C 47.363281 37.09375 45.964844 37.652344 44.851562 38.761719 Z M 56.386719 37.09375 C 54.855469 37.09375 53.660156 37.617188 52.796875 38.644531 C 51.933594 39.671875 51.515625 41.117188 51.515625 42.96875 C 51.515625 44.972656 51.949219 46.503906 52.796875 47.566406 C 53.644531 48.625 54.890625 49.164062 56.519531 49.164062 C 58.097656 49.164062 59.308594 48.625 60.15625 47.566406 C 61.003906 46.503906 61.4375 45.007812 61.4375 43.089844 C 61.4375 41.167969 61.003906 39.6875 60.140625 38.644531 C 59.261719 37.617188 58.015625 37.09375 56.386719 37.09375 Z M 57.699219 45.847656 C 57.398438 46.320312 56.949219 46.554688 56.386719 46.554688 C 55.855469 46.554688 55.453125 46.320312 55.171875 45.847656 C 54.890625 45.378906 54.757812 44.433594 54.757812 43.003906 C 54.757812 40.800781 55.304688 39.703125 56.417969 39.703125 C 57.582031 39.703125 58.179688 40.816406 58.179688 43.054688 C 58.164062 44.433594 57.996094 45.378906 57.699219 45.847656 Z M 69.648438 37.414062 L 69.046875 39.992188 C 68.898438 40.648438 68.75 41.320312 68.617188 42.011719 L 68.285156 43.796875 C 67.96875 42.011719 67.535156 39.890625 66.988281 37.414062 L 63.132812 37.414062 L 61.6875 48.878906 L 64.578125 48.878906 L 65.359375 40.984375 L 67.335938 48.878906 L 69.398438 48.878906 L 71.292969 41 L 72.105469 48.878906 L 75.132812 48.878906 L 73.601562 37.414062 Z M 83.488281 37.414062 L 82.890625 39.992188 C 82.742188 40.648438 82.59375 41.320312 82.460938 42.011719 L 82.128906 43.796875 C 81.8125 42.011719 81.378906 39.890625 80.832031 37.414062 L 76.976562 37.414062 L 75.53125 48.878906 L 78.421875 48.878906 L 79.203125 40.984375 L 81.179688 48.878906 L 83.242188 48.878906 L 85.117188 41 L 85.933594 48.878906 L 88.957031 48.878906 L 87.429688 37.414062 Z M 92.894531 44.351562 L 95.605469 44.351562 L 95.605469 41.976562 L 92.894531 41.976562 L 92.894531 39.875 L 96.019531 39.875 L 96.019531 37.433594 L 89.839844 37.433594 L 89.839844 48.894531 L 96.035156 48.894531 L 96.035156 46.453125 L 92.894531 46.453125 Z M 104.644531 42.53125 C 104.960938 42.011719 105.125 41.472656 105.125 40.917969 C 105.125 39.839844 104.710938 38.980469 103.878906 38.359375 C 103.050781 37.734375 101.902344 37.414062 100.472656 37.414062 L 96.917969 37.414062 L 96.917969 48.878906 L 99.976562 48.878906 L 99.976562 43.660156 L 100.023438 43.660156 L 102.5 48.878906 L 105.726562 48.878906 L 103.28125 43.710938 C 103.863281 43.441406 104.328125 43.054688 104.644531 42.53125 Z M 99.957031 42.347656 L 99.957031 39.621094 C 100.691406 39.636719 101.203125 39.753906 101.519531 39.992188 C 101.835938 40.226562 101.984375 40.597656 101.984375 41.136719 C 101.984375 41.925781 101.304688 42.332031 99.957031 42.347656 Z M 106.921875 38.761719 C 105.808594 39.875 105.257812 41.285156 105.257812 43.003906 C 105.257812 44.839844 105.808594 46.335938 106.90625 47.464844 C 108.003906 48.59375 109.429688 49.164062 111.210938 49.164062 C 111.722656 49.164062 112.304688 49.082031 112.9375 48.894531 L 112.9375 46.167969 C 112.355469 46.335938 111.855469 46.421875 111.425781 46.421875 C 110.542969 46.421875 109.847656 46.117188 109.316406 45.527344 C 108.78125 44.921875 108.515625 44.113281 108.515625 43.089844 C 108.515625 42.128906 108.78125 41.335938 109.296875 40.730469 C 109.828125 40.109375 110.476562 39.804688 111.273438 39.804688 C 111.789062 39.804688 112.339844 39.890625 112.9375 40.058594 L 112.9375 37.332031 C 112.390625 37.179688 111.773438 37.113281 111.125 37.113281 C 109.449219 37.09375 108.035156 37.652344 106.921875 38.761719 Z M 116.84375 46.421875 L 116.84375 44.332031 L 119.550781 44.332031 L 119.550781 41.960938 L 116.84375 41.960938 L 116.84375 39.855469 L 119.984375 39.855469 L 119.984375 37.414062 L 113.800781 37.414062 L 113.800781 48.878906 L 120 48.878906 L 120 46.4375 L 116.84375 46.4375 Z M 116.84375 46.421875 " fill-opacity="1" fill-rule="nonzero"/></svg>